# xmcd
#
# Track frame offsets:
# 150
# 17553
# 37109
# 56087
# 77109
# 99662
# 119208
# 139461
#
# Disc length: 2116 seconds
#
#
# Revision: 0
# Processed by: cddbd v1.5.2PL0 Copyright (c) Steve Scherf et al.
# Submitted via: FreeRIP 2.945 
#
DISCID=75084208
DTITLE=Peabo Bryson - Don't Play With Fire
DYEAR=1982
DGENRE=R&B
TTITLE0=Go For It
TTITLE1=Give Me Your Love
TTITLE2=Don't play With Fire
TTITLE3=We Don't Hav To Talk (About Love)
TTITLE4=Remember When (So Much In Love)
TTITLE5=Turn It On
TTITLE6=Words
TTITLE7=Let Me be the One You Need
EXTD=
EXTT0=
EXTT1=
EXTT2=
EXTT3=
EXTT4=
EXTT5=
EXTT6=
EXTT7=
PLAYORDER=
